<svg width="78" height="20" viewBox="0 0 78 20" fill="none" xmlns="http://www.w3.org/2000/svg">
<path fill-rule="evenodd" clip-rule="evenodd" d="M34.8818 0H30.2993C28.7482 0 27.425 1.16257 26.8544 3.02693L23.0629 15.4152H24.4706V19.9513H26.257C27.8082 19.9513 29.1314 18.7887 29.7019 16.9244L34.8818 0Z" fill="url(#paint0_linear_372_2)"/>
<path fill-rule="evenodd" clip-rule="evenodd" d="M23.0633 15.4152H24.471V19.9513H26.2575C27.8086 19.9513 29.1318 18.7887 29.7024 16.9244L30.6904 13.696L25.6183 7.06596L23.0633 15.4152Z" fill="#26104A"/>
<path fill-rule="evenodd" clip-rule="evenodd" d="M34.8818 0H31.1809L29.5656 5.27745L26.9759 13.7396L25.075 19.9509H26.2571C27.8082 19.9509 29.1314 18.7883 29.702 16.924L34.8818 0Z" fill="#EE378D"/>
<path fill-rule="evenodd" clip-rule="evenodd" d="M24.991 19.9513H26.257C26.3283 19.9513 26.3996 19.9488 26.47 19.9439L26.4796 19.9431C26.5003 19.9415 26.521 19.9399 26.5417 19.9382L26.5518 19.937L26.6033 19.9317L26.6345 19.928L26.6684 19.9235L26.7106 19.9174L26.7335 19.9142L26.7801 19.9064L26.7955 19.9036L26.8452 19.8942L26.8747 19.8881L26.9094 19.8807L26.9301 19.8758L24.6791 10.1345L22.9564 15.7634H24.9906L24.991 19.9513Z" fill="#0D0F21"/>
<path fill-rule="evenodd" clip-rule="evenodd" d="M23.2736 8.97312L26.6336 19.9513H22.0511C20.5 19.9513 19.1768 18.7887 18.6062 16.9244L15.2462 5.9462H19.8283C21.3798 5.9462 22.7031 7.10877 23.2736 8.97312Z" fill="url(#paint1_linear_372_2)"/>
<path fill-rule="evenodd" clip-rule="evenodd" d="M23.2736 8.97312L26.6336 19.9513H23.2336L21.3328 13.74L18.9472 5.9462H19.8287C21.3794 5.9462 22.7026 7.10877 23.2736 8.97312Z" fill="#6ABD45"/>
<path fill-rule="evenodd" clip-rule="evenodd" d="M17.9011 14.6204L15.2467 5.9462H19.8287C19.8542 5.9462 19.8797 5.9466 19.9053 5.94701L17.9011 14.6204Z" fill="#1F205A"/>
<path fill-rule="evenodd" clip-rule="evenodd" d="M11.6082 8.97312L9.32466 16.435H11.4032V19.9517H12.8307C14.3818 19.9517 15.705 18.7891 16.2756 16.9248L19.6356 5.9466H15.0531C13.502 5.94619 12.1788 7.10917 11.6082 8.97312Z" fill="url(#paint2_linear_372_2)"/>
<path fill-rule="evenodd" clip-rule="evenodd" d="M11.6482 19.9513H12.8307C14.3818 19.9513 15.705 18.7887 16.2756 16.9244L19.6356 5.9462H15.9347L14.3193 11.2241L11.7296 19.6862L11.6482 19.9513Z" fill="#EE378D"/>
<path fill-rule="evenodd" clip-rule="evenodd" d="M11.2528 10.1345L9.32466 16.4346H11.4032V19.9513H12.8307C13.0608 19.9513 13.2856 19.9256 13.5038 19.8758L11.2528 10.1345Z" fill="#0D0F21"/>
<path fill-rule="evenodd" clip-rule="evenodd" d="M0 0H4.58205C6.13316 0 7.45639 1.16257 8.02695 3.02693L13.2068 19.9513H8.62478C7.07367 19.9513 5.75044 18.7887 5.17988 16.9244L0 0Z" fill="url(#paint3_linear_372_2)"/>
<path fill-rule="evenodd" clip-rule="evenodd" d="M0 0H4.58205C6.13316 0 7.45639 1.16257 8.02695 3.02693L9.26308 7.06595L4.19185 13.696L0 0Z" fill="#252D6B"/>
<path fill-rule="evenodd" clip-rule="evenodd" d="M3.70092 0H4.58249C6.13359 0 7.45683 1.16257 8.02739 3.02693L13.2068 19.9513H9.8068L7.90597 13.74L5.31625 5.27785L3.70092 0Z" fill="#6ABD45"/>
<path d="M53.316 2.4491L51.6022 16.172H46.7958C46.3559 14.0638 45.9674 11.6648 45.6309 8.97597C45.4774 10.1288 45.1193 12.5277 44.5571 16.172H39.7775L38.0544 2.4491H41.7941L42.201 7.23721L42.5942 11.8659C42.7363 9.4706 43.0909 6.33154 43.6584 2.44869H47.6562C47.709 2.84994 47.8493 4.35871 48.0759 6.97501L48.5013 12.1962C48.7199 8.87443 49.0784 5.62527 49.5755 2.44828H53.316V2.4491Z" fill="black"/>
<path d="M68.568 2.4491L66.8541 16.172H62.0477C61.6078 14.0638 61.2194 11.6648 60.8829 8.97597C60.7293 10.1288 60.3713 12.5277 59.8091 16.172H55.0299L53.3068 2.4491H57.0465L57.4534 7.23721L57.8466 11.8659C57.9887 9.4706 58.3433 6.33154 58.9108 2.44869H62.9086C62.9614 2.84994 63.1017 4.35871 63.3283 6.97501L63.7537 12.1962C63.9723 8.87443 64.3308 5.62527 64.8279 2.44828H68.568V2.4491Z" fill="black"/>
<path d="M75.7987 2.44912L78 16.172H74.0659L73.8596 13.7054H72.4827L72.2513 16.172H68.2711L70.2348 2.44912H75.7987ZM73.7584 11.273C73.5636 9.71855 73.3682 7.79751 73.172 5.50907C72.7801 8.13679 72.5333 10.0582 72.4334 11.273H73.7584Z" fill="black"/>
<path d="M39.8198 17.4602L39.4494 18.4511C39.4348 18.4902 39.4278 18.5171 39.4278 18.5326C39.4278 18.5542 39.448 18.5705 39.4889 18.5811V18.613H39.1335V18.5811C39.174 18.5738 39.1947 18.5575 39.1947 18.5326C39.1947 18.5188 39.1867 18.4914 39.1713 18.4511L38.7798 17.4532C38.7525 17.3851 38.7319 17.3423 38.7174 17.3244C38.7024 17.3068 38.6782 17.295 38.6439 17.2889V17.2571H38.987V17.2889C38.9443 17.2934 38.9228 17.3105 38.9228 17.3395C38.9228 17.3501 38.9325 17.3811 38.9518 17.4316L39.3161 18.3895L39.6772 17.4316C39.6979 17.3754 39.7085 17.3427 39.7085 17.3346C39.7085 17.3105 39.6878 17.2954 39.6473 17.2889V17.2571H40.0208V17.2889C39.9803 17.2983 39.9596 17.315 39.9596 17.3395C39.9596 17.3497 39.9693 17.3802 39.9887 17.4316L40.3432 18.3895L40.6938 17.4316C40.711 17.3839 40.7198 17.3525 40.7198 17.3374C40.7198 17.3121 40.7 17.2962 40.6595 17.2885V17.2567H40.9833V17.2885C40.9486 17.2954 40.9226 17.3077 40.9068 17.3268C40.8909 17.3456 40.8711 17.3876 40.8474 17.4524L40.4735 18.4503C40.4589 18.4886 40.4519 18.5139 40.4519 18.5265C40.4519 18.553 40.4726 18.571 40.513 18.5799V18.6117H40.1633V18.5799C40.2042 18.5714 40.2245 18.553 40.2245 18.5253C40.2245 18.5167 40.2174 18.4943 40.2029 18.458L39.8198 17.4602Z" fill="black"/>
<path d="M42.2458 17.4765C42.4596 17.4765 42.6316 17.5279 42.7623 17.6314C42.9017 17.7407 42.9712 17.8851 42.9712 18.0645C42.9712 18.1762 42.9369 18.279 42.8683 18.3724C42.739 18.5485 42.5322 18.6366 42.248 18.6366C42.036 18.6366 41.8644 18.5848 41.7338 18.4817C41.5948 18.372 41.5248 18.2301 41.5248 18.0568C41.5248 17.9397 41.5587 17.8345 41.6269 17.7411C41.699 17.6425 41.8002 17.5707 41.93 17.5258C42.0193 17.494 42.1244 17.4777 42.2458 17.4765ZM42.2458 17.5919C42.0716 17.5919 41.9313 17.6416 41.8249 17.7407C41.732 17.8268 41.6858 17.932 41.6858 18.0563C41.6858 18.1807 41.732 18.2863 41.8249 18.372C41.9313 18.4715 42.0721 18.5212 42.248 18.5212C42.4236 18.5212 42.5648 18.4715 42.6712 18.372C42.764 18.2859 42.8107 18.1828 42.8107 18.0621C42.8107 17.9316 42.764 17.8243 42.6712 17.7403C42.5639 17.6429 42.4222 17.5931 42.2458 17.5919Z" fill="black"/>
<path d="M43.9478 18.1094V18.5004C43.9478 18.5277 43.9527 18.5469 43.9619 18.5583C43.9711 18.5697 43.9892 18.5791 44.0165 18.5856V18.6126H43.7261V18.5856C43.7543 18.5791 43.7723 18.5697 43.7815 18.5583C43.7903 18.5469 43.7952 18.5273 43.7952 18.5004V17.6127C43.7952 17.585 43.7903 17.5654 43.7811 17.5544C43.7719 17.543 43.7538 17.534 43.7266 17.5275V17.5005H44.4392C44.5201 17.5005 44.5857 17.5058 44.6367 17.5164C44.6878 17.5271 44.7322 17.545 44.77 17.5703C44.8527 17.6245 44.8945 17.704 44.8945 17.8084C44.8945 17.894 44.8655 17.9609 44.8074 18.0103C44.7493 18.0596 44.6644 18.0894 44.5527 18.0992L44.8536 18.542C44.8642 18.5571 44.8747 18.5677 44.8853 18.573C44.8958 18.5783 44.9139 18.5828 44.9407 18.5856V18.6126H44.6438V18.5856C44.6719 18.5803 44.6856 18.5722 44.6856 18.5608C44.6856 18.5526 44.6772 18.5371 44.6609 18.5131L44.3851 18.1089H43.9478V18.1094ZM43.9478 18.0009H44.404C44.4779 18.0009 44.5329 17.9984 44.5694 17.9935C44.6064 17.9887 44.6376 17.9793 44.6631 17.9662C44.7199 17.9369 44.748 17.8863 44.748 17.8141C44.748 17.7448 44.7216 17.6922 44.6688 17.6571C44.62 17.6245 44.5377 17.6082 44.4212 17.6082H43.9478V18.0009Z" fill="black"/>
<path d="M45.879 18.5045H46.6106C46.6405 18.5045 46.6616 18.5004 46.6744 18.4919C46.6867 18.4833 46.6964 18.4666 46.7038 18.4409H46.7329V18.6762H46.7038C46.6964 18.6509 46.6867 18.6342 46.6744 18.6256C46.662 18.617 46.6405 18.6126 46.6106 18.6126H45.6569V18.5856C45.6841 18.5791 45.7022 18.5697 45.7119 18.5583C45.7211 18.5469 45.7255 18.5273 45.7255 18.5004V17.6127C45.7255 17.585 45.7207 17.5654 45.7119 17.5544C45.7026 17.543 45.6841 17.534 45.6569 17.5275V17.5005H45.9472V17.5275C45.9199 17.534 45.9019 17.543 45.8927 17.5544C45.8834 17.5658 45.879 17.585 45.879 17.6127V18.5045Z" fill="black"/>
<path d="M47.4798 18.5004V17.6127C47.4798 17.5858 47.4754 17.5662 47.4666 17.5548C47.4578 17.5434 47.4394 17.534 47.4112 17.5275V17.5005H48.0174C48.1793 17.5005 48.3003 17.5181 48.3794 17.5531C48.478 17.5976 48.555 17.671 48.6108 17.7738C48.6597 17.8627 48.6838 17.9568 48.6838 18.0568C48.6838 18.1742 48.6517 18.2814 48.5871 18.3797C48.5316 18.4649 48.4608 18.5253 48.3755 18.5604C48.2901 18.5954 48.1709 18.613 48.0174 18.613H47.4112V18.586C47.4389 18.5795 47.4574 18.5701 47.4666 18.5587C47.4754 18.5469 47.4798 18.5277 47.4798 18.5004ZM47.6329 18.5045H48.009C48.1511 18.5045 48.2549 18.4865 48.3209 18.4511C48.394 18.4119 48.4481 18.3504 48.4837 18.2663C48.5101 18.2027 48.5233 18.133 48.5233 18.0568C48.5233 17.9214 48.4859 17.8125 48.4107 17.7309C48.3693 17.6865 48.3178 17.6551 48.2571 17.6363C48.196 17.618 48.1133 17.6086 48.009 17.6086H47.6329V18.5045Z" fill="black"/>
<path d="M51.5542 17.4602L51.1838 18.4511C51.1698 18.4902 51.1623 18.5171 51.1623 18.5326C51.1623 18.5542 51.1825 18.5705 51.2234 18.5811V18.613H50.8684V18.5811C50.9089 18.5738 50.9296 18.5575 50.9296 18.5326C50.9296 18.5188 50.9217 18.4914 50.9058 18.4511L50.5143 17.4532C50.4875 17.3851 50.4664 17.3423 50.4518 17.3244C50.4373 17.3068 50.4127 17.295 50.3784 17.2889V17.2571H50.7219V17.2889C50.6788 17.2934 50.6577 17.3105 50.6577 17.3395C50.6577 17.3501 50.6674 17.3811 50.6867 17.4316L51.051 18.3895L51.4126 17.4316C51.4333 17.3754 51.4434 17.3427 51.4434 17.3346C51.4434 17.3105 51.4232 17.2954 51.3822 17.2889V17.2571H51.7562V17.2889C51.7153 17.2983 51.695 17.315 51.695 17.3395C51.695 17.3497 51.7047 17.3802 51.724 17.4316L52.0786 18.3895L52.4292 17.4316C52.4464 17.3839 52.4552 17.3525 52.4552 17.3374C52.4552 17.3121 52.4349 17.2962 52.3949 17.2885V17.2567H52.7187V17.2885C52.6835 17.2954 52.6584 17.3077 52.6421 17.3268C52.6263 17.3456 52.6061 17.3876 52.5827 17.4524L52.2084 18.4503C52.1943 18.4886 52.1873 18.5139 52.1873 18.5265C52.1873 18.553 52.2075 18.571 52.2484 18.5799V18.6117H51.8991V18.5799C51.9396 18.5714 51.9603 18.553 51.9603 18.5253C51.9603 18.5167 51.9528 18.4943 51.9387 18.458L51.5542 17.4602Z" fill="black"/>
<path d="M53.4014 18.5004V17.6127C53.4014 17.585 53.397 17.5654 53.3878 17.5544C53.3785 17.543 53.36 17.534 53.3332 17.5275V17.5005H53.6235V17.5275C53.5963 17.534 53.5782 17.543 53.5686 17.5544C53.5589 17.5658 53.5549 17.585 53.5549 17.6127V18.5004C53.5549 18.5277 53.5593 18.5469 53.5686 18.5583C53.5778 18.5697 53.5963 18.5791 53.6235 18.5856V18.6126H53.3332V18.5856C53.36 18.5791 53.3785 18.5697 53.3878 18.5583C53.397 18.5469 53.4014 18.5277 53.4014 18.5004Z" fill="black"/>
<path d="M54.4765 18.5004V17.6127C54.4765 17.5858 54.4721 17.5662 54.4633 17.5548C54.4545 17.5434 54.436 17.534 54.4079 17.5275V17.5005H55.0141C55.176 17.5005 55.2969 17.5181 55.3761 17.5531C55.4747 17.5976 55.5516 17.671 55.6075 17.7738C55.6563 17.8627 55.6805 17.9568 55.6805 18.0568C55.6805 18.1742 55.6484 18.2814 55.5838 18.3797C55.5283 18.4649 55.4575 18.5253 55.3722 18.5604C55.2868 18.5954 55.1676 18.613 55.0141 18.613H54.4079V18.586C54.4356 18.5795 54.4541 18.5701 54.4633 18.5587C54.4721 18.5469 54.4765 18.5277 54.4765 18.5004ZM54.6296 18.5045H55.0057C55.1478 18.5045 55.2516 18.4865 55.3176 18.4511C55.3906 18.4119 55.4448 18.3504 55.4804 18.2663C55.5068 18.2027 55.52 18.133 55.52 18.0568C55.52 17.9214 55.4826 17.8125 55.4074 17.7309C55.366 17.6865 55.3145 17.6551 55.2538 17.6363C55.1927 17.618 55.11 17.6086 55.0057 17.6086H54.6296V18.5045Z" fill="black"/>
<path d="M56.6571 18.0922V18.5045H57.3984C57.4283 18.5045 57.4494 18.5004 57.4622 18.4919C57.4745 18.4833 57.4842 18.4666 57.4908 18.4409H57.5207V18.6762H57.4908C57.4842 18.6509 57.4749 18.6342 57.4626 18.6256C57.4503 18.6171 57.4296 18.6126 57.3993 18.6126H56.435V18.5857C56.4627 18.5791 56.4812 18.5698 56.4904 18.5583C56.4992 18.5469 56.5036 18.5273 56.5036 18.5004V17.6127C56.5036 17.585 56.4992 17.5654 56.49 17.5544C56.4807 17.5434 56.4623 17.534 56.4354 17.5275V17.5006H57.3922C57.4221 17.5006 57.4432 17.4961 57.4556 17.4875C57.4679 17.479 57.4771 17.4622 57.4846 17.437H57.5136V17.6722H57.4846C57.4771 17.647 57.4679 17.6298 57.4556 17.6213C57.4432 17.6127 57.4226 17.6086 57.3922 17.6086H56.6571V17.9842H57.1252C57.1551 17.9842 57.1762 17.9797 57.1885 17.9711C57.2009 17.9626 57.2101 17.9459 57.2176 17.9206H57.2466V18.1559H57.2176C57.2101 18.1306 57.2004 18.1135 57.1881 18.1049C57.1758 18.0963 57.1547 18.0922 57.1252 18.0922H56.6571Z" fill="black"/>
<path d="M60.4148 18.2325H59.6326L59.5042 18.4898C59.4919 18.5143 59.4862 18.5314 59.4862 18.5416C59.4862 18.5612 59.5073 18.5746 59.5495 18.5812V18.613H59.2231V18.5812C59.2526 18.5767 59.2746 18.5665 59.29 18.5514C59.3054 18.5363 59.3256 18.5033 59.3502 18.4523L59.886 17.3807C59.8988 17.3546 59.9054 17.3374 59.9054 17.3281C59.9054 17.3109 59.8878 17.2979 59.853 17.2893V17.2575H60.2085V17.2893C60.1733 17.2999 60.1557 17.3138 60.1557 17.3313C60.1557 17.3387 60.1623 17.355 60.1751 17.3811L60.688 18.414C60.7263 18.4902 60.7509 18.5347 60.7628 18.5481C60.7751 18.5616 60.8015 18.5726 60.8424 18.582V18.6138H60.4953V18.582C60.5371 18.5767 60.5578 18.562 60.5578 18.5384C60.5578 18.5277 60.5498 18.5074 60.534 18.4768L60.4148 18.2325ZM60.3532 18.1033L60.0237 17.4333L59.6951 18.1033H60.3532Z" fill="black"/>
<path d="M62.6302 17.5581L62.5123 17.7746L62.4863 17.7628C62.4898 17.7436 62.4916 17.7301 62.4916 17.7228C62.4916 17.7069 62.4683 17.6877 62.4216 17.6653C62.3231 17.6164 62.203 17.5919 62.0618 17.5919C61.9479 17.5919 61.8515 17.6115 61.7723 17.6506C61.6932 17.6902 61.6536 17.7456 61.6536 17.8166C61.6536 17.8484 61.6632 17.8769 61.6835 17.9022C61.7037 17.9279 61.7301 17.9459 61.764 17.9565C61.7974 17.9671 61.8339 17.974 61.8731 17.9772C61.9122 17.9805 61.9967 17.9846 62.126 17.9891C62.2338 17.9923 62.3152 17.9985 62.3706 18.0078C62.426 18.0172 62.4731 18.0319 62.5127 18.0523C62.5545 18.0743 62.5879 18.1057 62.6121 18.1473C62.6363 18.1885 62.6486 18.2337 62.6486 18.2827C62.6486 18.385 62.6033 18.467 62.5127 18.5277C62.404 18.5999 62.2598 18.6358 62.0798 18.6358C61.9914 18.6358 61.8982 18.6232 61.8009 18.5983C61.7033 18.573 61.6131 18.5388 61.5295 18.4947C61.5181 18.4882 61.5093 18.4849 61.5036 18.4849C61.4926 18.4849 61.4767 18.4963 61.4552 18.5196L61.4305 18.5049L61.5665 18.2933L61.5924 18.3071C61.5902 18.3153 61.5889 18.3206 61.588 18.323C61.5845 18.3336 61.5827 18.3422 61.5827 18.3487C61.5827 18.3671 61.6193 18.3944 61.6923 18.4303C61.815 18.4906 61.9426 18.5208 62.0746 18.5208C62.1951 18.5208 62.2958 18.5016 62.3755 18.4633C62.4137 18.445 62.4445 18.4197 62.4678 18.3883C62.4907 18.3569 62.5021 18.3239 62.5021 18.2896C62.5021 18.2578 62.4925 18.2293 62.4731 18.204C62.4538 18.1787 62.4287 18.1607 62.397 18.1506C62.368 18.1412 62.335 18.1347 62.2989 18.1306C62.2628 18.1265 62.1947 18.1228 62.0948 18.1196C61.9769 18.1151 61.8924 18.1094 61.8418 18.1033C61.7913 18.0971 61.7433 18.0861 61.698 18.071C61.6408 18.0519 61.5951 18.0209 61.5599 17.9777C61.5247 17.9332 61.5071 17.881 61.5071 17.8207C61.5071 17.7142 61.5594 17.6302 61.6637 17.5695C61.7701 17.5071 61.9052 17.4761 62.0697 17.4761C62.2197 17.4761 62.3706 17.5071 62.5219 17.5695C62.5448 17.578 62.558 17.5821 62.5615 17.5821C62.573 17.5821 62.5866 17.5699 62.602 17.5454L62.6302 17.5581Z" fill="black"/>
<path d="M64.5151 17.5581L64.3973 17.7746L64.3713 17.7628C64.3748 17.7436 64.3766 17.7301 64.3766 17.7228C64.3766 17.7069 64.3533 17.6877 64.3066 17.6653C64.2081 17.6164 64.088 17.5919 63.9468 17.5919C63.8329 17.5919 63.7365 17.6115 63.6573 17.6506C63.5781 17.6902 63.5386 17.7456 63.5386 17.8166C63.5386 17.8484 63.5482 17.8769 63.5685 17.9022C63.5887 17.9279 63.6151 17.9459 63.649 17.9565C63.6824 17.9671 63.7189 17.974 63.7581 17.9772C63.7972 17.9805 63.8817 17.9846 64.011 17.9891C64.1188 17.9923 64.2002 17.9985 64.2556 18.0078C64.311 18.0172 64.3581 18.0319 64.3977 18.0523C64.4395 18.0743 64.4729 18.1057 64.4971 18.1473C64.5213 18.1885 64.5336 18.2337 64.5336 18.2827C64.5336 18.385 64.4883 18.467 64.3977 18.5277C64.289 18.5999 64.1447 18.6358 63.9648 18.6358C63.8764 18.6358 63.7831 18.6232 63.6859 18.5983C63.5883 18.573 63.4981 18.5388 63.4145 18.4947C63.4031 18.4882 63.3943 18.4849 63.3885 18.4849C63.3775 18.4849 63.3617 18.4963 63.3402 18.5196L63.3155 18.5049L63.4515 18.2933L63.4774 18.3071C63.4752 18.3153 63.4739 18.3206 63.473 18.323C63.4695 18.3336 63.4677 18.3422 63.4677 18.3487C63.4677 18.3671 63.5042 18.3944 63.5773 18.4303C63.7 18.4906 63.8276 18.5208 63.9595 18.5208C64.0801 18.5208 64.1808 18.5016 64.2604 18.4633C64.2987 18.445 64.3295 18.4197 64.3528 18.3883C64.3757 18.3569 64.3871 18.3239 64.3871 18.2896C64.3871 18.2578 64.3775 18.2293 64.3581 18.204C64.3387 18.1787 64.3137 18.1607 64.282 18.1506C64.253 18.1412 64.22 18.1347 64.1839 18.1306C64.1478 18.1265 64.0796 18.1228 63.9798 18.1196C63.8619 18.1151 63.7774 18.1094 63.7268 18.1033C63.6762 18.0971 63.6283 18.0861 63.583 18.071C63.5258 18.0519 63.48 18.0209 63.4449 17.9777C63.4097 17.9332 63.3921 17.881 63.3921 17.8207C63.3921 17.7142 63.4444 17.6302 63.5487 17.5695C63.6551 17.5071 63.7902 17.4761 63.9547 17.4761C64.1047 17.4761 64.2556 17.5071 64.4069 17.5695C64.4298 17.578 64.443 17.5821 64.4465 17.5821C64.458 17.5821 64.4716 17.5699 64.487 17.5454L64.5151 17.5581Z" fill="black"/>
<path d="M65.9515 17.4765C66.1652 17.4765 66.3372 17.5279 66.4679 17.6314C66.6069 17.7407 66.6769 17.8851 66.6769 18.0645C66.6769 18.1762 66.6425 18.279 66.5739 18.3724C66.445 18.5485 66.2383 18.6366 65.9537 18.6366C65.7412 18.6366 65.5701 18.5848 65.4394 18.4817C65.3 18.372 65.2304 18.2301 65.2304 18.0568C65.2304 17.9397 65.2643 17.8345 65.3321 17.7411C65.4042 17.6425 65.5054 17.5707 65.6352 17.5258C65.7245 17.494 65.83 17.4777 65.9515 17.4765ZM65.9515 17.5919C65.7772 17.5919 65.6369 17.6416 65.5305 17.7407C65.4376 17.8268 65.391 17.932 65.391 18.0563C65.391 18.1807 65.4376 18.2863 65.5305 18.372C65.6369 18.4715 65.7777 18.5212 65.9537 18.5212C66.1296 18.5212 66.2704 18.4715 66.3768 18.372C66.4697 18.2859 66.5158 18.1828 66.5158 18.0621C66.5158 17.9316 66.4697 17.8243 66.3768 17.7403C66.2699 17.6429 66.1279 17.5931 65.9515 17.5919Z" fill="black"/>
<path d="M68.714 17.5829L68.5803 17.7966L68.5557 17.7819C68.5605 17.7648 68.5632 17.7513 68.5632 17.7419C68.5632 17.7281 68.5486 17.7126 68.52 17.6951C68.4052 17.6261 68.2702 17.5919 68.1149 17.5919C67.9636 17.5919 67.8369 17.6306 67.7344 17.7081C67.62 17.7946 67.5633 17.9083 67.5633 18.0486C67.5633 18.2011 67.6262 18.3222 67.7529 18.4132C67.8523 18.4853 67.9706 18.5212 68.1087 18.5212C68.2645 18.5212 68.3995 18.4792 68.5148 18.3948C68.5596 18.3618 68.5825 18.3373 68.5825 18.3222C68.5825 18.3108 68.5764 18.2941 68.5645 18.2717L68.5891 18.257L68.7563 18.4556L68.7338 18.4735C68.7088 18.4531 68.6912 18.4429 68.6806 18.4429C68.6749 18.4429 68.6661 18.4474 68.6547 18.456C68.5667 18.5196 68.4787 18.5657 68.3903 18.5942C68.3023 18.6227 68.2033 18.637 68.0942 18.637C67.9037 18.637 67.7463 18.5893 67.6231 18.4939C67.5606 18.4462 67.5113 18.3895 67.4744 18.3243C67.4273 18.2411 67.4036 18.1509 67.4036 18.0551C67.4036 17.8728 67.4805 17.7265 67.6341 17.6151C67.7621 17.523 67.9227 17.4773 68.1162 17.4773C68.2878 17.4773 68.4514 17.5164 68.608 17.5943C68.6217 17.6013 68.6318 17.6045 68.6393 17.6045C68.6542 17.6045 68.6709 17.5931 68.6898 17.5707L68.714 17.5829Z" fill="black"/>
<path d="M69.5727 18.5004V17.6127C69.5727 17.585 69.5679 17.5654 69.5587 17.5544C69.5494 17.543 69.5314 17.534 69.5041 17.5275V17.5005H69.7945V17.5275C69.7672 17.534 69.7491 17.543 69.7399 17.5544C69.7307 17.5658 69.7258 17.585 69.7258 17.6127V18.5004C69.7258 18.5277 69.7307 18.5469 69.7399 18.5583C69.7491 18.5697 69.7672 18.5791 69.7945 18.5856V18.6126H69.5041V18.5856C69.5314 18.5791 69.5494 18.5697 69.5587 18.5583C69.5679 18.5469 69.5727 18.5277 69.5727 18.5004Z" fill="black"/>
<path d="M71.4327 18.2998H70.8032L70.713 18.4866C70.7015 18.5098 70.6958 18.5269 70.6958 18.5379C70.6958 18.5608 70.7143 18.5763 70.7517 18.5856V18.6126H70.4561V18.5856C70.4847 18.5812 70.5071 18.5706 70.5229 18.5542C70.5388 18.5379 70.5581 18.5069 70.5801 18.4613L70.9774 17.6608C70.9998 17.6164 71.0108 17.5858 71.0108 17.5695C71.0108 17.5462 70.9928 17.5319 70.9571 17.5266V17.4997H71.3051V17.5266C71.2695 17.534 71.2514 17.5483 71.2514 17.5695C71.2514 17.5821 71.2659 17.6172 71.2941 17.6755L71.6755 18.445C71.701 18.4959 71.7234 18.531 71.7419 18.5502C71.7604 18.5693 71.7837 18.5807 71.8127 18.5848V18.6117H71.5004V18.5848C71.5338 18.5783 71.5506 18.5669 71.5506 18.551C71.5506 18.5428 71.5418 18.5212 71.5246 18.4853L71.4327 18.2998ZM71.3825 18.1913L71.1208 17.6461L70.8559 18.1913H71.3825Z" fill="black"/>
<path d="M73.0168 17.6147V18.5004C73.0168 18.5277 73.0212 18.5469 73.0304 18.5583C73.0392 18.5697 73.0577 18.5791 73.0858 18.5856V18.6125H72.7955V18.5856C72.8223 18.5791 72.8408 18.5697 72.85 18.5583C72.8593 18.5469 72.8637 18.5273 72.8637 18.5004V17.6147H72.473C72.4431 17.6147 72.422 17.6188 72.4097 17.6274C72.3974 17.6359 72.3877 17.6526 72.3807 17.6783H72.3516V17.443H72.3807C72.3877 17.4683 72.3974 17.485 72.4097 17.4936C72.422 17.5022 72.4427 17.5067 72.473 17.5067H73.4083C73.4382 17.5067 73.4593 17.5022 73.4712 17.4936C73.4835 17.485 73.4932 17.4683 73.5002 17.443H73.5288V17.6783H73.5002C73.4932 17.653 73.4831 17.6359 73.4707 17.6274C73.4584 17.6188 73.4373 17.6147 73.4083 17.6147H73.0168Z" fill="black"/>
<path d="M74.4465 18.0922V18.5045H75.1877C75.218 18.5045 75.2392 18.5004 75.2515 18.4919C75.2638 18.4833 75.2735 18.4666 75.2796 18.4409H75.3095V18.6762H75.2796C75.2735 18.6509 75.2638 18.6342 75.2519 18.6256C75.2396 18.6171 75.2189 18.6126 75.1886 18.6126H74.2243V18.5857C74.2525 18.5791 74.2705 18.5698 74.2797 18.5583C74.2885 18.5469 74.2934 18.5273 74.2934 18.5004V17.6127C74.2934 17.585 74.2885 17.5654 74.2793 17.5544C74.2701 17.543 74.252 17.534 74.2247 17.5275V17.5006H75.1815C75.2115 17.5006 75.2326 17.4961 75.2449 17.4875C75.2572 17.479 75.2669 17.4622 75.2739 17.437H75.3029V17.6722H75.2739C75.2669 17.647 75.2572 17.6298 75.2449 17.6213C75.2326 17.6127 75.2119 17.6086 75.1815 17.6086H74.4465V17.9842H74.9145C74.9444 17.9842 74.9655 17.9797 74.9779 17.9711C74.9902 17.9626 74.9999 17.9459 75.0069 17.9206H75.0359V18.1559H75.0069C74.9999 18.1306 74.9897 18.1135 74.9774 18.1049C74.9651 18.0963 74.944 18.0922 74.915 18.0922H74.4465Z" fill="black"/>
<path d="M77.2003 17.5581L77.0824 17.7746L77.0564 17.7628C77.0599 17.7436 77.0617 17.7301 77.0617 17.7228C77.0617 17.7069 77.0384 17.6877 76.9922 17.6653C76.8936 17.6164 76.7736 17.5919 76.6319 17.5919C76.5184 17.5919 76.4216 17.6115 76.3429 17.6506C76.2637 17.6902 76.2237 17.7456 76.2237 17.8166C76.2237 17.8484 76.2338 17.8769 76.2536 17.9022C76.2734 17.9279 76.3002 17.9459 76.3341 17.9565C76.3675 17.9671 76.404 17.974 76.4436 17.9772C76.4828 17.9805 76.5672 17.9846 76.6966 17.9891C76.8043 17.9923 76.8857 17.9985 76.9412 18.0078C76.9966 18.0172 77.0437 18.0319 77.0832 18.0523C77.1255 18.0743 77.1585 18.1057 77.1827 18.1473C77.2069 18.1885 77.2192 18.2337 77.2192 18.2827C77.2192 18.385 77.1739 18.467 77.0832 18.5277C76.9746 18.5999 76.8303 18.6358 76.6504 18.6358C76.562 18.6358 76.4687 18.6232 76.3715 18.5983C76.2743 18.573 76.1836 18.5388 76.1001 18.4947C76.0886 18.4882 76.0803 18.4849 76.0741 18.4849C76.0635 18.4849 76.0473 18.4963 76.0262 18.5196L76.0015 18.5049L76.1379 18.2933L76.1634 18.3071C76.1612 18.3153 76.1599 18.3206 76.159 18.323C76.1555 18.3336 76.1537 18.3422 76.1537 18.3487C76.1537 18.3671 76.1898 18.3944 76.2628 18.4303C76.3856 18.4906 76.5131 18.5208 76.6451 18.5208C76.7656 18.5208 76.8664 18.5016 76.946 18.4633C76.9847 18.445 77.0151 18.4197 77.0379 18.3883C77.0608 18.3569 77.0723 18.3239 77.0723 18.2896C77.0723 18.2578 77.0626 18.2293 77.0437 18.204C77.0243 18.1787 76.9988 18.1607 76.9676 18.1506C76.9381 18.1412 76.9055 18.1347 76.8695 18.1306C76.8334 18.1265 76.7652 18.1228 76.6653 18.1196C76.5474 18.1151 76.4634 18.1094 76.4124 18.1033C76.3614 18.0971 76.3139 18.0861 76.269 18.071C76.2118 18.0519 76.1656 18.0209 76.1309 17.9777C76.0957 17.9332 76.0785 17.881 76.0785 17.8207C76.0785 17.7142 76.1304 17.6302 76.2347 17.5695C76.3411 17.5071 76.4766 17.4761 76.6407 17.4761C76.7907 17.4761 76.9416 17.5071 77.0929 17.5695C77.1158 17.578 77.1286 17.5821 77.1325 17.5821C77.144 17.5821 77.1576 17.5699 77.173 17.5454L77.2003 17.5581Z" fill="black"/>
<defs>
<linearGradient id="paint0_linear_372_2" x1="24.7637" y1="15.9702" x2="33.3136" y2="-1.00164" gradientUnits="userSpaceOnUse">
<stop stop-color="#493091"/>
<stop offset="1" stop-color="#ED1E78"/>
</linearGradient>
<linearGradient id="paint1_linear_372_2" x1="25.4613" y1="8.32035" x2="18.8937" y2="16.1445" gradientUnits="userSpaceOnUse">
<stop stop-color="#3D479D"/>
<stop offset="1" stop-color="#3DC7F4"/>
</linearGradient>
<linearGradient id="paint2_linear_372_2" x1="11.4318" y1="16.1543" x2="18.3412" y2="5.8847" gradientUnits="userSpaceOnUse">
<stop stop-color="#493091"/>
<stop offset="1" stop-color="#ED1E78"/>
</linearGradient>
<linearGradient id="paint3_linear_372_2" x1="1.24037" y1="-0.4061" x2="10.3161" y2="20.04" gradientUnits="userSpaceOnUse">
<stop stop-color="#3D479D"/>
<stop offset="1" stop-color="#3DC7F4"/>
</linearGradient>
</defs>
</svg>
